<?xml version="1.0" encoding="UTF-8" standalone="no"?>
<!-- Created with Inkscape (http://www.inkscape.org/) -->

<svg
   xmlns:dc="http://purl.org/dc/elements/1.1/"
   xmlns:cc="http://creativecommons.org/ns#"
   xmlns:rdf="http://www.w3.org/1999/02/22-rdf-syntax-ns#"
   xmlns:svg="http://www.w3.org/2000/svg"
   xmlns="http://www.w3.org/2000/svg"
   xmlns:sodipodi="http://sodipodi.sourceforge.net/DTD/sodipodi-0.dtd"
   xmlns:inkscape="http://www.inkscape.org/namespaces/inkscape"
   width="128mm"
   height="129mm"
   viewBox="0 0 128 129"
   version="1.1"
   id="svg8"
   inkscape:version="0.92.4 (5da689c313, 2019-01-14)"
   sodipodi:docname="icon.svg">
  <defs
     id="defs2" />
  <sodipodi:namedview
     id="base"
     pagecolor="#ffffff"
     bordercolor="#666666"
     borderopacity="1.0"
     inkscape:pageopacity="0.0"
     inkscape:pageshadow="2"
     inkscape:zoom="0.49497475"
     inkscape:cx="521.81288"
     inkscape:cy="663.79469"
     inkscape:document-units="mm"
     inkscape:current-layer="layer1"
     showgrid="false"
     inkscape:window-width="1868"
     inkscape:window-height="1016"
     inkscape:window-x="1972"
     inkscape:window-y="27"
     inkscape:window-maximized="1" />
  <metadata
     id="metadata5">
    <rdf:RDF>
      <cc:Work
         rdf:about="">
        <dc:format>image/svg+xml</dc:format>
        <dc:type
           rdf:resource="http://purl.org/dc/dcmitype/StillImage" />
        <dc:title></dc:title>
      </cc:Work>
    </rdf:RDF>
  </metadata>
  <g
     inkscape:label="Calque 1"
     inkscape:groupmode="layer"
     id="layer1"
     transform="translate(0,-168)">
    <circle
       style="opacity:1;fill:#94c11f;fill-opacity:1;stroke:#ffffff;stroke-width:0.26458332;stroke-opacity:1"
       id="path4524"
       cx="64.144684"
       cy="232.85532"
       r="63.075607" />
    <g
       id="sync"
       transform="matrix(5.2536145,0,0,5.2313421,0.56677631,169.81194)"
       style="fill:#ffffff">
      <g
         id="sync-2"
         data-name="sync"
         style="fill:#ffffff"
         transform="matrix(0.87705581,0,0,0.8935624,1.4753302,1.2772512)">
        <g
           class="cls-1"
           id="g10"
           style="opacity:0;fill:#ffffff">
          <rect
             class="cls-2"
             width="24"
             height="24"
             id="rect8"
             x="0"
             y="0"
             style="fill:#ffffff" />
        </g>
        <path
           class="cls-3"
           d="m 21.66,10.37 a 0.62,0.62 0 0 0 0.07,-0.19 l 0.75,-4 a 1.0160709,1.0160709 0 0 0 -2,-0.36 l -0.37,2 A 9.22,9.22 0 0 0 3.53,8.66 1,1 0 0 0 4.08,9.96 1,1 0 0 0 5.39,9.41 7.08,7.08 0 0 1 12.07,5 7.17,7.17 0 0 1 18.31,8.58 L 16.66,8.31 a 1.0127191,1.0127191 0 1 0 -0.32,2 l 4.25,0.71 h 0.16 a 0.93,0.93 0 0 0 0.34,-0.06 0.33,0.33 0 0 0 0.1,-0.06 0.78,0.78 0 0 0 0.2,-0.11 l 0.08,-0.1 a 1.07,1.07 0 0 0 0.14,-0.16 0.58,0.58 0 0 0 0.05,-0.16 z"
           id="path12"
           inkscape:connector-curvature="0"
           style="fill:#ffffff" />
        <path
           class="cls-3"
           d="M 19.88,14.07 A 1,1 0 0 0 18.57,14.63 7.08,7.08 0 0 1 11.93,19 7.17,7.17 0 0 1 5.69,15.42 l 1.65,0.27 H 7.5 a 1.0031949,1.0031949 0 0 0 0.16,-2 L 3.41,13 A 0.91,0.91 0 0 0 3.08,13 H 3 a 1.15,1.15 0 0 0 -0.32,0.14 v 0 A 1,1 0 0 0 2.5,13.32 l -0.09,0.1 a 0.84,0.84 0 0 0 -0.07,0.19 0.44,0.44 0 0 0 -0.07,0.17 l -0.75,4 A 1,1 0 0 0 2.32,19 H 2.5 a 1,1 0 0 0 1,-0.82 l 0.37,-2 a 9.22,9.22 0 0 0 16.58,-0.83 1,1 0 0 0 -0.57,-1.28 z"
           id="path14"
           inkscape:connector-curvature="0"
           style="fill:#ffffff" />
      </g>
    </g>
  </g>
</svg>
